<?xml version="1.0" encoding="UTF-8"?>
<svg version="1.1" xmlns="http://www.w3.org/2000/svg" width="257" height="269">
<path d="M0 0 C84.81 0 169.62 0 257 0 C257 88.77 257 177.54 257 269 C172.19 269 87.38 269 0 269 C0 180.23 0 91.46 0 0 Z " fill="#FEFEFE" transform="translate(0,0)"/>
<path d="M0 0 C17.08545077 14.30137217 26.8109485 37.48758797 29.52734375 59.21875 C29.7967501 64.18083903 29.8073639 69.12541528 29.77734375 74.09375 C29.78507813 75.36605469 29.7928125 76.63835937 29.80078125 77.94921875 C29.77809837 89.05249074 28.96417538 99.94236672 24.83984375 110.34375 C24.58219238 111.01188721 24.32454102 111.68002441 24.05908203 112.3684082 C20.7866465 120.51624454 16.04803119 127.43240277 10.52734375 134.21875 C11.70296875 135.58 11.70296875 135.58 12.90234375 136.96875 C17.41753261 142.19686342 17.98161033 146.34450587 17.83203125 153.18359375 C17.17098461 159.76863527 14.38549141 163.67885319 9.58984375 168.09375 C4.40394675 172.27869262 0.4405095 173.65883179 -6.2109375 173.4609375 C-13.37560209 172.6937368 -18.73166085 168.34415043 -23.47265625 163.21875 C-26.98488795 157.5113735 -27.300848 151.75017134 -26.47265625 145.21875 C-24.44545154 138.19593369 -19.67942477 133.92507373 -13.6875 130.0703125 C-10.5859106 128.87781428 -7.84806886 128.95460736 -4.53515625 128.96875 C-3.32988281 128.96359375 -2.12460938 128.9584375 -0.8828125 128.953125 C2.368581 129.2063836 4.60701346 129.82231123 7.52734375 131.21875 C14.62083578 122.75384951 19.115058 114.69621713 22.52734375 104.21875 C22.86765625 103.19007813 23.20796875 102.16140625 23.55859375 101.1015625 C25.73778571 93.01030346 25.80013638 84.99479807 25.83984375 76.65625 C25.8454834 75.53250977 25.85112305 74.40876953 25.85693359 73.25097656 C25.66729621 51.2080408 20.0769965 26.74760003 4.52734375 10.21875 C3.68171875 9.31125 2.83609375 8.40375 1.96484375 7.46875 C0.75828125 6.355 0.75828125 6.355 -0.47265625 5.21875 C-1.35953125 4.39375 -2.24640625 3.56875 -3.16015625 2.71875 C-13.58747704 -5.69209145 -25.94162302 -7.37672293 -39.0078125 -7.16015625 C-46.72978398 -6.31570165 -54.43675383 -2.99150417 -60.0703125 2.44921875 C-65.29729037 9.04482035 -66.19445248 16.48909324 -65.91015625 24.70703125 C-64.34447445 37.27442353 -56.07526416 47.33923239 -48.50390625 57.03515625 C-33.6502554 76.13943195 -25.20770569 95.59992947 -27.47265625 120.21875 C-30.41685205 142.14537561 -40.36561095 161.82430458 -58.11865234 175.48535156 C-76.55363256 188.87058998 -97.98237699 193.26707435 -120.38671875 190.78515625 C-136.45973915 188.06120227 -153.6640962 180.74779834 -163.47265625 167.21875 C-159.45409146 167.21875 -157.28123706 169.20426605 -154.09765625 171.40625 C-141.35181773 179.91180629 -128.37349463 183.5781329 -113.16015625 183.46875 C-112.09603516 183.47648438 -111.03191406 183.48421875 -109.93554688 183.4921875 C-100.94006529 183.47023391 -92.11950572 182.7173802 -83.78515625 179.09375 C-82.54185547 178.56394531 -82.54185547 178.56394531 -81.2734375 178.0234375 C-80.67917969 177.75789062 -80.08492188 177.49234375 -79.47265625 177.21875 C-79.14265625 174.90875 -78.81265625 172.59875 -78.47265625 170.21875 C-95.30265625 170.21875 -112.13265625 170.21875 -129.47265625 170.21875 C-129.47265625 158.00875 -129.47265625 145.79875 -129.47265625 133.21875 C-112.64265625 133.21875 -95.81265625 133.21875 -78.47265625 133.21875 C-78.47265625 117.37875 -78.47265625 101.53875 -78.47265625 85.21875 C-66.59265625 85.21875 -54.71265625 85.21875 -42.47265625 85.21875 C-42.47265625 101.05875 -42.47265625 116.89875 -42.47265625 133.21875 C-41.15265625 133.21875 -39.83265625 133.21875 -38.47265625 133.21875 C-32.98969126 117.09622201 -32.77887295 95.95114489 -39.47265625 80.21875 C-39.92382812 79.11402344 -40.375 78.00929688 -40.83984375 76.87109375 C-44.45616053 68.89180772 -49.21725228 62.39558378 -54.61816406 55.55566406 C-64.75833614 42.62591475 -70.73592772 31.05546649 -69.47265625 14.21875 C-68.28221688 6.61643918 -64.20610333 1.21490101 -58.47265625 -3.78125 C-40.33597518 -15.59452404 -17.05782999 -12.28810502 0 0 Z " fill="#0C6D6F" transform="translate(190.47265625,30.78125)"/>
<path d="M0 0 C18.19312464 13.10594761 27.87518428 36.44117249 31.61181641 57.89453125 C32.35938421 63.87507366 32.28636456 69.85666585 32.25 75.875 C32.26160156 77.78345703 32.26160156 77.78345703 32.2734375 79.73046875 C32.25075462 90.83374074 31.43683163 101.72361672 27.3125 112.125 C27.05484863 112.79313721 26.79719727 113.46127441 26.53173828 114.1496582 C23.25930275 122.29749454 18.52068744 129.21365277 13 136 C14.175625 137.36125 14.175625 137.36125 15.375 138.75 C19.89018886 143.97811342 20.45426658 148.12575587 20.3046875 154.96484375 C19.64364086 161.54988527 16.85814766 165.46010319 12.0625 169.875 C6.876603 174.05994262 2.91316575 175.44008179 -3.73828125 175.2421875 C-10.90294584 174.4749868 -16.2590046 170.12540043 -21 165 C-24.5122317 159.2926235 -24.82819175 153.53142134 -24 147 C-21.97279529 139.97718369 -17.20676852 135.70632373 -11.21484375 131.8515625 C-8.11325435 130.65906428 -5.37541261 130.73585736 -2.0625 130.75 C-0.85722656 130.74484375 0.34804687 130.7396875 1.58984375 130.734375 C4.84123725 130.9876336 7.07966971 131.60356123 10 133 C17.09349203 124.53509951 21.58771425 116.47746713 25 106 C25.3403125 104.97132813 25.680625 103.94265625 26.03125 102.8828125 C28.21044196 94.79155346 28.27279263 86.77604807 28.3125 78.4375 C28.31813965 77.31375977 28.3237793 76.19001953 28.32958984 75.03222656 C28.13995246 52.9892908 22.54965275 28.52885003 7 12 C6.154375 11.0925 5.30875 10.185 4.4375 9.25 C3.633125 8.5075 2.82875 7.765 2 7 C1.113125 6.175 0.22625 5.35 -0.6875 4.5 C-11.11482079 -3.91084145 -23.46896677 -5.59547293 -36.53515625 -5.37890625 C-44.29869265 -4.52990621 -51.85421623 -1.17446484 -57.59765625 4.17578125 C-60.30285111 7.69479518 -61.66553324 11.8059616 -63 16 C-63.99 15.67 -64.98 15.34 -66 15 C-65.65869861 8.17397215 -61.95585264 3.92898126 -57.28125 -0.703125 C-40.86501046 -14.47607173 -16.94012137 -10.33793814 0 0 Z " fill="#177476" transform="translate(188,29)"/>
<path d="M0 0 C0 15.84 0 31.68 0 48 C-11.22 48 -22.44 48 -34 48 C-34 39.09 -34 30.18 -34 21 C-30.04 19.35 -26.08 17.7 -22 16 C-14.84201807 11.86427711 -8.90037277 7.3932544 -2.8984375 1.72265625 C-1 0 -1 0 0 0 Z " fill="#EDB442" transform="translate(147,200)"/>
<path d="M0 0 C4.7210664 2.82026251 8.2794839 6.07068655 10.7734375 11.05859375 C11.27522315 17.50460943 11.73573024 23.64346034 7.7734375 29.05859375 C3.4388253 33.39320595 -0.76175352 36.32785848 -6.9765625 36.49609375 C-12.48042431 36.3743269 -16.12976403 34.69178223 -20.2265625 31.05859375 C-24.41942483 25.68312922 -25.64847794 21.38822824 -25.5703125 14.6953125 C-24.80810422 8.84882856 -21.63168307 5.1545878 -17.1015625 1.62109375 C-11.67838573 -1.32628493 -5.84638289 -2.47189171 0 0 Z " fill="#EDB340" transform="translate(193.2265625,163.94140625)"/>
<path d="M0 0 C4.7210664 2.82026251 8.2794839 6.07068655 10.7734375 11.05859375 C11.27522315 17.50460943 11.73573024 23.64346034 7.7734375 29.05859375 C3.4388253 33.39320595 -0.76175352 36.32785848 -6.9765625 36.49609375 C-12.48042431 36.3743269 -16.12976403 34.69178223 -20.2265625 31.05859375 C-24.41942483 25.68312922 -25.64847794 21.38822824 -25.5703125 14.6953125 C-24.80810422 8.84882856 -21.63168307 5.1545878 -17.1015625 1.62109375 C-11.67838573 -1.32628493 -5.84638289 -2.47189171 0 0 Z M-20.0390625 10.30859375 C-22.15098995 15.1993731 -21.79989769 19.33858817 -20.1640625 24.24609375 C-17.69317853 27.8328608 -15.15951151 30.16104722 -11.2265625 32.05859375 C-6.00803052 32.79101929 -2.63842736 31.90179555 1.7734375 29.05859375 C5.86469996 24.6356073 7.14405499 21.19808325 7.0546875 15.12109375 C6.45912713 10.75365101 3.85906738 8.04553 0.7109375 5.18359375 C-7.74830079 1.94388547 -14.42222847 3.33597219 -20.0390625 10.30859375 Z " fill="#F5F7F5" transform="translate(193.2265625,163.94140625)"/>
<path d="M0 0 C0.33 0 0.66 0 1 0 C1.07476562 0.75023437 1.14953125 1.50046875 1.2265625 2.2734375 C2.24864013 10.22961046 4.50950258 15.36187338 9 22 C1.74 22 -5.52 22 -13 22 C-11.37194781 18.74389562 -9.74980376 16.16348638 -7.625 13.25 C-4.59162807 8.98174806 -2.19757306 4.74675781 0 0 Z " fill="#EEB74B" transform="translate(160,178)"/>
<path d="M0 0 C0.66 0 1.32 0 2 0 C2 0.66 2 1.32 2 2 C2.66 2.33 3.32 2.66 4 3 C3.38245741 4.31602523 2.75571258 5.62773556 2.125 6.9375 C1.77695313 7.66839844 1.42890625 8.39929688 1.0703125 9.15234375 C0 11 0 11 -2 12 C-2.46523063 13.89533342 -2.46523063 13.89533342 -2.625 16.0625 C-2.74875 17.361875 -2.8725 18.66125 -3 20 C-3.33 20 -3.66 20 -4 20 C-5.94281628 12.22873489 -3.39628641 7.05111365 0 0 Z " fill="#F4E4BF" transform="translate(165,165)"/>
<path d="M0 0 C0.33 0 0.66 0 1 0 C1.03738281 0.70125 1.07476562 1.4025 1.11328125 2.125 C1.54272869 8.32251602 2.52645761 13.30009796 5 19 C3.125 18.75 3.125 18.75 1 18 C-1.48970025 14.69348957 -1.23696835 11.32843025 -1.1875 7.3125 C-1.18105469 6.15363281 -1.17460937 4.99476563 -1.16796875 3.80078125 C-1 1 -1 1 0 0 Z " fill="#FBFCFC" transform="translate(163,176)"/>
<path d="M0 0 C1.875 0.125 1.875 0.125 4 1 C5.25 4.0625 5.25 4.0625 6 7 C4.125 6.875 4.125 6.875 2 6 C0.75 2.9375 0.75 2.9375 0 0 Z " fill="#F3F1E7" transform="translate(162,188)"/>
</svg>
